<?xml version="1.0" encoding="UTF-8"?>
<svg xmlns="http://www.w3.org/2000/svg" xmlns:xlink="http://www.w3.org/1999/xlink" width="150px" height="100px" viewBox="0 0 150 100" version="1.1">
<g id="surface1">
<path style=" stroke:none;fill-rule:nonzero;fill:rgb(0%,0%,0%);fill-opacity:1;" d="M 42.414062 49.921875 L 42.414062 64.835938 L 74.277344 64.835938 L 72.851562 63.667969 C 71.378906 62.472656 69.363281 59.984375 68.507812 58.296875 C 68.222656 57.753906 67.863281 57.289062 67.679688 57.261719 C 67.527344 57.261719 67.265625 57.210938 67.113281 57.183594 C 66.984375 57.132812 63.441406 57.105469 59.300781 57.078125 L 51.722656 57.054688 L 51.722656 53.164062 L 66.386719 53.164062 L 66.386719 49.792969 L 66.363281 46.421875 L 51.722656 46.421875 L 51.722656 42.789062 L 67.628906 42.789062 L 68.535156 41.054688 C 69.128906 39.910156 70.164062 38.5625 71.535156 37.164062 L 73.65625 35.011719 L 42.414062 35.011719 Z M 42.414062 49.921875 "/>
<path style=" stroke:none;fill-rule:nonzero;fill:rgb(0%,0%,0%);fill-opacity:1;" d="M 85.265625 35.269531 C 78.570312 36.410156 73.527344 40.300781 71.898438 45.589844 C 71.25 47.640625 71.199219 51.113281 71.765625 53.292969 C 73.058594 58.273438 77.351562 62.292969 83.277344 64.082031 C 85.136719 64.652344 85.628906 64.679688 97.449219 64.78125 L 109.65625 64.859375 L 109.65625 46.160156 L 90.542969 46.160156 L 87.828125 49.457031 L 85.113281 52.773438 L 92.714844 52.851562 L 100.34375 52.90625 L 100.34375 57.054688 L 93.800781 57.054688 C 85.886719 57.054688 84.699219 56.820312 82.421875 54.746094 C 81.101562 53.554688 80.558594 52.203125 80.558594 50.050781 C 80.558594 48.390625 80.664062 47.925781 81.257812 46.914062 C 82.136719 45.410156 83.222656 44.476562 85.085938 43.59375 L 86.507812 42.921875 L 95.484375 42.84375 L 104.457031 42.765625 L 105.722656 41.15625 C 106.398438 40.273438 107.742188 38.539062 108.722656 37.265625 L 110.457031 35.011719 L 98.484375 35.035156 C 91.886719 35.0625 85.941406 35.164062 85.265625 35.269531 Z M 85.265625 35.269531 "/>
</g>
</svg>
